<svg xmlns="http://www.w3.org/2000/svg" xml:space="preserve" id="Layer_1" x="0" y="0" version="1.1" viewBox="0 0 1841 966.2"><style>.st0{fill:#6faec0}</style><path d="M1230.8 480.3h52.4v22.4h-52.4zm-555.5-47.5c-14.3 0-23.6 5.9-29.2 16.1v-27c7.8-4.5 17.5-6.8 29.2-6.8 41.4 0 60.5 27.3 60.5 74.9 0 29.2-7.6 50.7-23.2 62.6V490c-.1-34.3-9.2-57.2-37.3-57.2zm-140.5-17.7c-11.5 0-21.3 2.1-29.4 6.2v25.4c6.2-9.6 15.9-13.8 28.8-13.8 22.8 0 35.1 14.1 34.9 49.1h-71.7v-55.6c-16.9 12.8-23.9 35.8-23.9 63.5 0 3.3.1 6.5.3 9.6h118.5c.2-3.2.3-8.1.3-13.5 0-47.5-20.6-70.9-57.8-70.9zm494.4 0c-11.5 0-21.3 2.1-29.4 6.2v25.4c6.2-9.6 15.9-13.8 28.8-13.8 22.8 0 35.1 14.1 34.9 49.1h-32v17.5h55.2c.2-3.2.3-8.1.3-13.5.1-47.5-20.6-70.9-57.8-70.9zM913 491.5h22.5v-136h-36.9v17.7H913zm-79.2 53.9c-2.9.7-6.1 1-9.5 1-28 0-35.6-22.6-35.6-56.7v-72.5h-36.9v17.7h14.5v175.8h22.4V545c6.3 9.9 19.7 19 41.1 19 1.3 0 2.7 0 4-.1v-18.5zm550.9 1.5c-16.7 0-29.4-6.5-29.4-27.8 0-28.1 22.1-27.6 41.1-27.6h17.6v-16.4h-21.8c-30.6 0-60.1 4.7-60.1 44.4 0 34.5 23.1 44.8 47.8 44.8 15.4 0 26.7-4.2 34.1-10.2V534c-5.4 7.5-14.3 12.9-29.3 12.9zm124.3-47.4h-22.4v62.7h35.2v-17.7H1509zM397 415.1c-14.8 0-25.5 4.4-33 10.4v21.9c5.5-9.1 14.1-14.5 27.6-14.5 28.1 0 37.2 22.6 37.2 56.7 0 25.7-5.2 44.9-19.7 52.7V563c25-4.8 42.8-25.9 42.8-73.3 0-54.8-23.7-74.6-54.9-74.6z" class="st0"/><path fill="#65a782" d="M1200.3 419.9h22.4v52.4h-22.4zm0 60.4h22.4v22.4h-22.4zm-60.4 0h52.4v22.4h-52.4zm-525 9.7c0-29.4 7.6-50.7 23.2-62.6V490c0 34.1 9.1 57 37.2 57 14.1 0 23.4-5.8 29.2-16.1v27c-7.8 4.5-17.5 6.8-29.2 6.8-41.4.1-60.4-27.2-60.4-74.7zm-71.2 56.4c-26.4 0-42.9-12.3-45.6-39h-23.5c5.3 42 30.6 57 66.6 57 22.1 0 36.7-5.7 42.9-8.3l-1.5-18.7c-7.4 3.3-21.2 9-38.9 9zm494.5 0c-28.9 0-46-14.8-46-47h31.4v-17.6h-31.7v-55.6C975 439 968 462 968 489.7c0 55.4 27 74.6 67.6 74.6 22.1 0 36.7-5.7 42.9-8.3l-1.5-18.7c-7.3 3.4-21.1 9.1-38.8 9.1zm-102.7-1.9v-45H913v62.7h35.3v-17.7zM829.7 415.1c-14.8 0-25.5 4.4-33 10.4v21.9c5.5-9.1 14.1-14.5 27.6-14.5 28.1 0 37.2 22.6 37.2 56.7 0 25.7-5.2 44.9-19.7 52.7V563c25-4.8 42.8-25.9 42.8-73.3 0-54.8-23.7-74.6-54.9-74.6zm614.5 129.4v-64.7c0-24.7 0-64.7-58.8-64.7-20.2 0-37.4 4.7-42.7 6.7l1.3 17.9c6.8-2.1 21.3-6.7 39.7-6.7 23.1 0 38.8 7.1 38.2 42.1l.2 16.4v70.6h35.1v-17.7l-13 .1zm42.4-53h22.4v-74.3h-36.9v17.7h14.5zM401.1 545.4c-2.9.7-6.1 1-9.5 1-28 0-35.6-22.6-35.6-56.7v-72.5h-36.9v17.7h14.5v175.8H356V545c6.3 9.9 19.7 19 41.1 19 1.4 0 2.7 0 4-.1v-18.5z"/><path d="M1200.3 510.7h22.4v52.4h-22.4zm285.1-149h22.4v22.4h-22.4z" class="st0"/></svg>