<?xml version="1.0" encoding="utf-8"?>
<!-- Generator: Adobe Illustrator 27.6.1, SVG Export Plug-In . SVG Version: 6.00 Build 0)  -->
<svg version="1.1" id="Layer_1" xmlns="http://www.w3.org/2000/svg" xmlns:xlink="http://www.w3.org/1999/xlink" x="0px" y="0px"
	 viewBox="0 0 565.5 301.4" style="enable-background:new 0 0 565.5 301.4;" xml:space="preserve">
<style type="text/css">
	.st0{fill:#A55D3D;}
	.st1{fill:#C0A398;}
	.st2{fill:#6FAEC0;}
	.st3{fill:#65A782;}
	.st4{display:none;opacity:0.41;}
	.st5{display:inline;fill:#6FAEC0;}
	.st6{display:inline;fill:#65A782;}
	.st7{display:none;opacity:0.23;}
</style>
<g>
	<g>
		<g>
			<path class="st0" d="M198.8,249.6c-7.5,0-14-1.7-19.3-5c-5.4-3.3-9.5-7.9-12.4-13.9c-2.9-5.9-4.3-12.8-4.3-20.7
				c0-8.2,1.5-15.2,4.4-21.1c2.9-5.8,7-10.3,12.2-13.4s11.2-4.6,18-4.6c6.7,0,12.4,1.2,17,3.7c4.6,2.5,8,5.8,10.2,10
				c2.2,4.2,3.2,8.8,3.1,13.9h-15.7c0-2.1-0.4-4-1-5.6c-0.6-1.6-1.5-3.1-2.7-4.3c-1.2-1.2-2.7-2.1-4.5-2.8c-1.8-0.7-3.9-1-6.3-1
				c-6.5,0-11.1,2.2-13.8,6.7s-4.1,10.6-4.1,18.2c0,8.8,1.6,15.3,4.9,19.6c3.3,4.3,8.4,6.4,15.2,6.4c1.7,0,3.5-0.4,5.4-1.4
				c1.9-1,3.6-2.3,4.9-4.1c1.3-1.8,2-3.9,1.9-6.4h15.7c0.2,5.3-1.1,9.9-3.8,13.8c-2.7,3.9-6.3,6.8-10.8,8.9
				C208.6,248.6,203.9,249.6,198.8,249.6z"/>
			<path class="st0" d="M242.5,248.3V140h16.3v32.4l-1.1,21.6l0.6,6.1l-0.8-4.9c0.6-4.2,1.6-8.1,3.2-11.9c1.6-3.7,4-6.8,7.3-9.1
				c3.3-2.3,7.7-3.5,13.2-3.5c7.2,0,12.7,2.2,16.7,6.7c3.9,4.5,5.9,11.3,5.9,20.5v50.3h-16.5v-44.6c0-6.4-1-11.1-2.9-13.8
				c-1.9-2.8-5.3-4.2-10.2-4.2c-3.4,0-6.5,1.1-9.3,3.4c-2.7,2.3-4.8,4.7-6.1,7.5v51.8H242.5z"/>
			<path class="st0" d="M342.8,249.1c-4.5,0-8.6-0.9-12.2-2.6c-3.6-1.7-6.4-4.2-8.4-7.3c-2-3.1-3-6.7-3-10.8c0-4.5,0.8-8.1,2.4-11
				c1.6-2.9,4-5.2,7-7c3.1-1.8,6.7-3.1,11-4c2.9-0.6,6-1.2,9.3-1.6c3.3-0.4,6.4-0.7,9.2-1c2.9-0.3,5-0.4,6.6-0.5v-3.1
				c0-5.2-1-9.1-3.1-11.7c-2.1-2.6-5.6-3.9-10.5-3.9c-3.2,0-5.8,0.4-7.9,1.2c-2.1,0.8-3.7,2.2-4.8,4.3c-1.1,2.1-1.7,5.2-1.8,9.2h-15
				c-0.5-6.5,0.4-11.9,2.8-16.1c2.4-4.2,6-7.3,10.7-9.3c4.8-2,10.4-3,16.9-3c3.8,0,7.4,0.4,10.9,1.3c3.4,0.9,6.5,2.3,9.1,4.4
				c2.6,2.1,4.7,4.9,6.3,8.5c1.5,3.6,2.3,8.1,2.3,13.6v49.7h-16.1l0.2-17c-0.9,5.1-3.1,9.3-6.7,12.7
				C354.5,247.4,349.4,249.1,342.8,249.1z M347.3,236.7c2.4,0,4.9-0.4,7.4-1.2c2.5-0.8,4.7-2,6.6-3.6c1.9-1.6,3-3.4,3.5-5.6v-13.9
				c-1.9,0.2-4,0.5-6.6,0.9c-2.5,0.4-4.7,0.9-6.5,1.3c-5.2,1-9,2.4-11.3,4.1c-2.3,1.7-3.5,4.4-3.5,8c0,2,0.5,3.8,1.5,5.3
				c1,1.5,2.2,2.6,3.8,3.4C343.8,236.3,345.5,236.7,347.3,236.7z"/>
			<path class="st0" d="M409.2,161.1c-3,0-5.5-1.1-7.6-3.2c-2.1-2.1-3.1-4.8-3.1-8c0-3.2,1-5.9,3.1-8c2.1-2.1,4.6-3.1,7.7-3.1
				c2.9,0,5.4,1,7.5,3.1c2.1,2.1,3.2,4.7,3.2,8c0,3.2-1.1,5.9-3.2,8C414.7,160.1,412.2,161.1,409.2,161.1z M400.9,248.3v-75.9h16.6
				l-0.3,75.9H400.9z"/>
		</g>
	</g>
	<g>
		<g>
			<rect x="98.8" y="202.6" class="st1" width="32.3" height="13.8"/>
			<rect x="80" y="165.5" class="st0" width="13.8" height="32.3"/>
			<rect x="80" y="202.6" class="st0" width="13.8" height="13.8"/>
			<rect x="42.8" y="202.6" class="st0" width="32.3" height="13.8"/>
			<rect x="80" y="221.4" class="st1" width="13.8" height="32.3"/>
		</g>
	</g>
	<g>
		<g>
			<rect x="398.4" y="81.9" class="st2" width="18.4" height="7.9"/>
			<path class="st2" d="M203.2,65.2c-5,0-8.3,2.1-10.3,5.7v-9.5c2.7-1.6,6.2-2.4,10.3-2.4c14.6,0,21.2,9.6,21.2,26.3
				c0,10.3-2.7,17.8-8.2,22v-22C216.3,73.3,213.1,65.2,203.2,65.2z"/>
			<path class="st2" d="M153.8,59c-4.1,0-7.5,0.7-10.3,2.2v8.9c2.2-3.4,5.6-4.9,10.1-4.9c8,0,12.3,5,12.3,17.2h-25.2V62.9
				c-5.9,4.5-8.4,12.6-8.4,22.3c0,1.2,0,2.3,0.1,3.4h8.4c0,0,0,0,0,0H174c0.1-1.1,0.1-2.9,0.1-4.7C174.1,67.2,166.9,59,153.8,59z"/>
			<path class="st2" d="M327.5,59c-4.1,0-7.5,0.7-10.3,2.2v8.9c2.2-3.4,5.6-4.9,10.1-4.9c8,0,12.3,5,12.3,17.2h-11.2v6.2h19.4
				c0.1-1.1,0.1-2.9,0.1-4.7C347.9,67.2,340.6,59,327.5,59z"/>
			<polygon class="st2" points="286.7,85.8 294.6,85.8 294.6,38 281.6,38 281.6,44.2 286.7,44.2 			"/>
			<path class="st2" d="M258.9,104.8c-1,0.2-2.1,0.4-3.3,0.4c-9.8,0-12.5-7.9-12.5-19.9V59.7h-13v6.2h5.1v61.8h7.9v-23.1
				c2.2,3.5,6.9,6.7,14.4,6.7c0.5,0,0.9,0,1.4,0V104.8z"/>
			<path class="st2" d="M452.4,105.3c-5.9,0-10.3-2.3-10.3-9.8c0-9.9,7.8-9.7,14.4-9.7h6.2V80h-7.7c-10.7,0-21.1,1.7-21.1,15.6
				c0,12.1,8.1,15.8,16.8,15.8c5.4,0,9.4-1.5,12-3.6v-7.1C460.8,103.4,457.7,105.3,452.4,105.3z"/>
			<polygon class="st2" points="496.1,88.6 488.2,88.6 488.2,110.7 500.6,110.7 500.6,104.4 496.1,104.4 			"/>
			<path class="st2" d="M105.4,59c-5.2,0-9,1.5-11.6,3.7v7.7c1.9-3.2,5-5.1,9.7-5.1c9.9,0,13.1,7.9,13.1,19.9c0,9-1.8,15.8-6.9,18.5
				v7.2c8.8-1.7,15-9.1,15-25.8C124.7,65.9,116.3,59,105.4,59z"/>
			<rect x="387.7" y="60.6" class="st3" width="7.9" height="18.4"/>
			<rect x="387.7" y="81.9" class="st3" width="7.9" height="7.9"/>
			<rect x="366.4" y="81.9" class="st3" width="18.4" height="7.9"/>
			<path class="st3" d="M181.9,85.3c0-10.3,2.7-17.8,8.2-22v22c0,12,3.2,20,13.1,20c5,0,8.2-2.1,10.3-5.7v9.5
				c-2.7,1.6-6.2,2.4-10.3,2.4C188.6,111.6,181.9,102,181.9,85.3z"/>
			<path class="st3" d="M156.9,105.1c-9.3,0-15.1-4.3-16-13.7h-8.3c1.9,14.7,10.7,20,23.4,20c7.8,0,12.9-2,15.1-2.9l-0.5-6.6
				C168,103.1,163.2,105.1,156.9,105.1z"/>
			<path class="st3" d="M330.7,105.1c-10.2,0-16.2-5.2-16.2-16.5h11v-6.2h-11.1V62.9c-5.9,4.5-8.4,12.6-8.4,22.3
				c0,19.5,9.5,26.2,23.8,26.2c7.8,0,12.9-2,15.1-2.9l-0.5-6.6C341.8,103.1,336.9,105.1,330.7,105.1z"/>
			<polygon class="st3" points="294.6,104.4 294.6,88.6 286.7,88.6 286.7,110.7 299.1,110.7 299.1,104.4 			"/>
			<path class="st3" d="M257.4,59c-5.2,0-9,1.5-11.6,3.7v7.7c1.9-3.2,5-5.1,9.7-5.1c9.9,0,13.1,7.9,13.1,19.9c0,9-1.8,15.8-6.9,18.5
				v7.2c8.8-1.7,15-9.1,15-25.8C276.7,65.9,268.4,59,257.4,59z"/>
			<path class="st3" d="M473.3,104.4V81.7c0-8.7,0-22.7-20.7-22.7c-7.1,0-13.1,1.7-15,2.3l0.5,6.3c2.4-0.7,7.5-2.3,13.9-2.3
				c8.1,0,13.6,2.5,13.4,14.8l0.1,5.8h0v0.4l0,0.1h0v24.4h12.3v-6.2H473.3z"/>
			<polygon class="st3" points="488.2,85.8 496.1,85.8 496.1,59.7 483.2,59.7 483.2,65.9 488.2,65.9 			"/>
			<path class="st3" d="M106.8,104.8c-1,0.2-2.1,0.4-3.3,0.4c-9.8,0-12.5-7.9-12.5-19.9V59.7H78v6.2h5.1v61.8H91v-23.1
				c2.2,3.5,6.9,6.7,14.4,6.7c0.5,0,0.9,0,1.4,0V104.8z"/>
			<rect x="387.7" y="92.6" class="st2" width="7.9" height="18.4"/>
		</g>
		<rect x="487.8" y="40.2" class="st2" width="7.9" height="7.9"/>
	</g>
</g>
<g class="st4">
	<rect x="1736.4" y="-4050.5" class="st5" width="161.3" height="69"/>
	<rect x="1642.9" y="-4236.4" class="st6" width="69" height="161.3"/>
	<rect x="1642.9" y="-4050.5" class="st6" width="69" height="69"/>
	<rect x="1457" y="-4050.5" class="st6" width="161.3" height="69"/>
	<rect x="1642.9" y="-3957" class="st5" width="69" height="161.3"/>
</g>
<g class="st7">
	<rect x="1737" y="-4014.3" class="st5" width="165.2" height="70.7"/>
	<rect x="1641.1" y="-4204.7" class="st6" width="70.7" height="165.2"/>
	<rect x="1641.1" y="-4014.3" class="st6" width="70.7" height="70.7"/>
	<rect x="1450.7" y="-4014.3" class="st6" width="165.2" height="70.7"/>
	<rect x="1641.1" y="-3918.5" class="st5" width="70.7" height="165.2"/>
</g>
<g class="st7">
	<rect x="868.9" y="-4014.3" class="st5" width="165.2" height="70.7"/>
	<rect x="773.1" y="-4204.7" class="st6" width="70.7" height="165.2"/>
	<rect x="773.1" y="-4014.3" class="st6" width="70.7" height="70.7"/>
	<rect x="582.7" y="-4014.3" class="st6" width="165.2" height="70.7"/>
	<rect x="773.1" y="-3918.5" class="st5" width="70.7" height="165.2"/>
</g>
<g>
	<rect x="2623.4" y="-4014.3" class="st2" width="165.2" height="70.7"/>
	<rect x="2527.6" y="-4204.7" class="st3" width="70.7" height="165.2"/>
	<rect x="2527.6" y="-4014.3" class="st3" width="70.7" height="70.7"/>
	<rect x="2337.2" y="-4014.3" class="st3" width="165.2" height="70.7"/>
	<rect x="2527.6" y="-3918.5" class="st2" width="70.7" height="165.2"/>
</g>
</svg>
