<?xml version="1.0" encoding="UTF-8"?>
<svg version="1.1" viewBox="0 0 2048 455" width="1280" height="1280" xmlns="http://www.w3.org/2000/svg">
<path transform="translate(1597,102)" d="m0 0h57l1 1v96l8-7 11-7 12-5 11-3 7-1h23l20 4 13 5 13 7 10 8 12 12 9 14 6 13 5 19 1 7v29l-4 20-5 13-7 13-7 9-8 9-10 8-14 8-16 6-15 3-16 1-20-2-14-4-15-8-12-11v20l-1 2h-55l-1-1v-277zm102 122-12 3-10 5-9 7-7 10-4 10-2 8-1 15 2 15 4 11 7 11 10 9 11 5 7 2h22l13-5 9-6 9-10 5-10 3-11 1-8v-10l-2-13-4-11-7-11-11-9-12-5-10-2z"/>
<path transform="translate(390,176)" d="m0 0h28l20 3 18 6 13 7 11 9 8 10 8 16 4 16 1 6 1 23v108l-1 1h-54l-1-3-1-19-9 10-11 7-10 4-14 3-17 1-21-2-16-5-12-6-10-9-7-8-6-13-2-9v-20l4-13 6-11 9-9 11-7 16-6 16-3 13-1h58l-2-10-4-11-6-8-10-6-10-3-9-1h-13l-18 3-19 7-14 8-10-19-11-21 4-4 12-7 19-7 16-4zm7 120-13 2-10 5-6 8-1 3v11l3 7 5 5 8 5 9 2h16l11-3 10-5 9-9 5-10v-20l-1-1z"/>
<path transform="translate(1432,176)" d="m0 0h28l20 3 16 5 12 6 12 9 9 10 8 15 5 17 2 18v121l-1 1h-54l-1-23-9 10-10 7-12 5-13 3-18 1-21-2-16-5-13-7-10-9-6-8-5-10-3-13v-16l3-13 6-11 9-10 14-9 18-6 12-2 13-1h58l-4-18-6-9-8-6-9-4-14-2h-13l-18 3-16 6-13 7-4 2-17-33-3-6v-3l16-9 15-6 19-5zm7 120-13 2-10 5-6 9-1 3v9l3 8 9 8 13 4h16l12-3 10-6 6-5 6-10 1-2v-22z"/>
<path transform="translate(114,118)" d="m0 0h153v184l-3 20-6 18-7 12-9 10-8 7-14 8-15 5-19 3h-26l-25-5-15-6-15-9-15-14-3-5 11-13 9-11 11-13 3-3 11 12 8 7 14 7 10 2h12l13-4 8-6 6-12 2-9 1-136h-92z"/>
<path transform="translate(1116,176)" d="m0 0h28l19 2 23 5 16 6 7 4-3 9-15 32-2 1-15-7-13-4-11-2-11-1h-16l-12 2-12 6-3 5v10l4 5 11 4 24 5 30 6 17 5 13 7 10 9 6 9 4 10 1 6v18l-3 12-7 12-8 9-13 9-13 6-13 4-18 3-23 1-26-2-23-5-18-6-16-8-1-3 15-33 4-7 20 9 20 6 21 3h19l12-2 10-5 4-6v-8l-4-5-9-4-25-5-24-4-19-5-10-4-11-7-10-10-6-11-2-8-1-17 3-15 6-12 9-11 11-8 14-7 17-5z"/>
<path transform="translate(1919,176)" d="m0 0h27l19 2 19 4 18 6 9 5-1 5-17 36-2 1-15-7-12-4-12-2-11-1h-16l-15 3-8 5-4 5v10l4 5 11 4 24 5 35 7 19 7 11 8 7 7 6 10 3 11v21l-4 13-7 12-8 8-10 7-15 7-17 5-14 2-23 1-25-2-20-4-24-8-14-7-1-3 16-34 3-6 5 2 15 7 20 6 21 3h19l12-2 10-5 3-3 1-3v-8l-2-5-5-2-13-4-42-7-19-5-16-8-8-6-9-10-4-9-2-8v-22l4-13 6-11 12-12 13-8 16-6 19-4z"/>
<path transform="translate(686,179)" d="m0 0h61l15 37 20 49 16 39 4 10 19-44 13-31 19-45 6-14 1-1h56l-6 16-18 42-15 36-38 90-7 17-1 1h-60l-6-12-20-48-19-45-36-86z"/>
<path transform="translate(1252,102)" d="m0 0h58l1 1v277l-1 1h-57l-1-1z"/>
<path transform="translate(666,176)" d="m0 0h13l1 1v52l-3 1h-19l-14 3-13 7-9 10-5 11-3 16-1 103-1 1h-58v-202h56l1 24 11-11 13-8 15-5z"/>
<path transform="translate(940,179)" d="m0 0h59v201l-1 1h-58z"/>
<path transform="translate(960,86)" d="m0 0h19l11 4 9 7 5 8 2 8v8l-4 13-9 10-9 5-11 2-13-1-9-3-9-6-6-9-3-8v-12l4-11 5-6 11-7z"/>
</svg>
