<svg version="1.1" id="Layer_1" xmlns="http://www.w3.org/2000/svg" xmlns:xlink="http://www.w3.org/1999/xlink" x="0px" y="0px"
	 width="100%" viewBox="0 0 674 634" enable-background="new 0 0 674 634" xml:space="preserve">
<path fill="#000000" opacity="1.000000" stroke="none" 
	d="
M316.000000,635.000000 
	C210.666672,635.000000 105.833336,635.000000 1.000000,635.000000 
	C1.000000,423.666656 1.000000,212.333328 1.000000,1.000000 
	C225.666672,1.000000 450.333344,1.000000 675.000000,1.000000 
	C675.000000,212.333328 675.000000,423.666656 675.000000,635.000000 
	C555.500000,635.000000 436.000000,635.000000 316.000000,635.000000 
M444.499939,460.171173 
	C479.612610,460.171173 514.725281,460.171173 549.963684,460.171173 
	C549.963684,444.192719 549.963684,428.652771 549.963684,412.633179 
	C506.946899,412.633179 464.222778,412.633179 421.152161,412.633179 
	C421.152161,332.575897 421.152161,252.999359 421.152161,173.340210 
	C402.105682,173.340210 383.412689,173.340210 364.755829,173.340210 
	C364.755829,269.081512 364.755829,364.479523 364.755829,460.171173 
	C391.205963,460.171173 417.352936,460.171173 444.499939,460.171173 
M143.746719,454.808472 
	C171.523148,466.252686 200.213516,466.925781 229.049713,460.710480 
	C253.526031,455.434875 271.872101,441.582458 281.986420,418.008728 
	C289.827637,399.732880 291.594849,380.395782 291.630127,360.842957 
	C291.740448,299.702789 291.672852,238.562332 291.661346,177.421982 
	C291.661102,176.000137 291.508240,174.578308 291.434235,173.289948 
	C272.367798,173.289948 253.787018,173.289948 234.999237,173.289948 
	C234.999237,175.392914 234.999252,177.204834 234.999252,179.016769 
	C234.999115,239.490738 235.072327,299.964905 234.908325,360.438416 
	C234.887222,368.219757 234.230698,376.107025 232.827637,383.754211 
	C230.027588,399.015137 221.789948,410.065155 205.993607,413.788727 
	C194.523560,416.492493 183.096527,415.352875 172.153595,411.168762 
	C156.181702,405.061798 145.908707,392.995270 138.679886,377.948029 
	C136.468689,373.345337 133.344437,372.989960 130.074173,376.951843 
	C120.853897,388.122101 111.737640,399.379120 102.425148,410.471619 
	C100.551735,412.703125 100.405052,414.349335 101.776253,416.925446 
	C111.075729,434.396271 125.267258,446.392670 143.746719,454.808472 
z"/>
<path fill="#FDFDFD" opacity="1.000000" stroke="none" 
	d="
M443.999908,460.171173 
	C417.352936,460.171173 391.205963,460.171173 364.755829,460.171173 
	C364.755829,364.479523 364.755829,269.081512 364.755829,173.340210 
	C383.412689,173.340210 402.105682,173.340210 421.152161,173.340210 
	C421.152161,252.999359 421.152161,332.575897 421.152161,412.633179 
	C464.222778,412.633179 506.946899,412.633179 549.963684,412.633179 
	C549.963684,428.652771 549.963684,444.192719 549.963684,460.171173 
	C514.725281,460.171173 479.612610,460.171173 443.999908,460.171173 
z"/>
<path fill="#FDFDFD" opacity="1.000000" stroke="none" 
	d="
M143.412567,454.628174 
	C125.267258,446.392670 111.075729,434.396271 101.776253,416.925446 
	C100.405052,414.349335 100.551735,412.703125 102.425148,410.471619 
	C111.737640,399.379120 120.853897,388.122101 130.074173,376.951843 
	C133.344437,372.989960 136.468689,373.345337 138.679886,377.948029 
	C145.908707,392.995270 156.181702,405.061798 172.153595,411.168762 
	C183.096527,415.352875 194.523560,416.492493 205.993607,413.788727 
	C221.789948,410.065155 230.027588,399.015137 232.827637,383.754211 
	C234.230698,376.107025 234.887222,368.219757 234.908325,360.438416 
	C235.072327,299.964905 234.999115,239.490738 234.999252,179.016769 
	C234.999252,177.204834 234.999237,175.392914 234.999237,173.289948 
	C253.787018,173.289948 272.367798,173.289948 291.434235,173.289948 
	C291.508240,174.578308 291.661102,176.000137 291.661346,177.421982 
	C291.672852,238.562332 291.740448,299.702789 291.630127,360.842957 
	C291.594849,380.395782 289.827637,399.732880 281.986420,418.008728 
	C271.872101,441.582458 253.526031,455.434875 229.049713,460.710480 
	C200.213516,466.925781 171.523148,466.252686 143.412567,454.628174 
z"/>
</svg>