<?xml version="1.0" encoding="utf-8"?>
<!-- Generator: Adobe Illustrator 27.6.1, SVG Export Plug-In . SVG Version: 6.00 Build 0)  -->
<svg version="1.1" id="Layer_1" xmlns="http://www.w3.org/2000/svg" xmlns:xlink="http://www.w3.org/1999/xlink" x="0px" y="0px"
	 viewBox="0 0 879.3 370.7" style="enable-background:new 0 0 879.3 370.7;" xml:space="preserve">
<style type="text/css">
	.st0{fill:#6B538C;}
	.st1{fill:#B4A0D8;}
	.st2{fill:#6FAEC0;}
	.st3{fill:#65A782;}
	.st4{display:none;opacity:0.41;}
	.st5{display:inline;fill:#6FAEC0;}
	.st6{display:inline;fill:#65A782;}
	.st7{display:none;opacity:0.23;}
</style>
<g>
	<g>
		<g>
			<path class="st0" d="M247.5,285.2c-7.5,0-14-1.7-19.3-5c-5.4-3.3-9.5-7.9-12.4-13.9c-2.9-5.9-4.3-12.8-4.3-20.7
				c0-8.2,1.5-15.2,4.4-21.1c2.9-5.8,7-10.3,12.2-13.4s11.2-4.6,18-4.6c6.7,0,12.4,1.2,17,3.7c4.6,2.5,8,5.8,10.2,10
				c2.2,4.2,3.2,8.8,3.1,13.9h-15.7c0-2.1-0.4-4-1-5.6c-0.6-1.6-1.5-3.1-2.7-4.3c-1.2-1.2-2.7-2.1-4.5-2.8c-1.8-0.7-3.9-1-6.3-1
				c-6.5,0-11.1,2.2-13.8,6.7s-4.1,10.6-4.1,18.2c0,8.8,1.6,15.3,4.9,19.6c3.3,4.3,8.4,6.4,15.2,6.4c1.7,0,3.5-0.4,5.4-1.4
				c1.9-1,3.6-2.3,4.9-4.1c1.3-1.8,2-3.9,1.9-6.4h15.7c0.2,5.3-1.1,9.9-3.8,13.8c-2.7,3.9-6.3,6.8-10.8,8.9
				C257.3,284.2,252.5,285.2,247.5,285.2z"/>
			<path class="st0" d="M310.2,284.7c-4.5,0-8.6-0.9-12.2-2.6c-3.6-1.7-6.4-4.2-8.4-7.3c-2-3.1-3-6.7-3-10.8c0-4.5,0.8-8.1,2.4-11
				c1.6-2.9,4-5.2,7-7c3.1-1.8,6.7-3.1,11-4c2.9-0.6,6-1.2,9.3-1.6c3.3-0.4,6.4-0.7,9.2-1c2.9-0.3,5-0.4,6.6-0.5v-3.1
				c0-5.2-1-9.1-3.1-11.7c-2.1-2.6-5.6-3.9-10.5-3.9c-3.2,0-5.8,0.4-7.9,1.2c-2.1,0.8-3.7,2.2-4.8,4.3c-1.1,2.1-1.7,5.2-1.8,9.2h-15
				c-0.5-6.5,0.4-11.9,2.8-16.1c2.4-4.2,6-7.3,10.7-9.3c4.8-2,10.4-3,16.9-3c3.8,0,7.4,0.4,10.9,1.3c3.4,0.9,6.5,2.3,9.1,4.4
				c2.6,2.1,4.7,4.9,6.3,8.5c1.5,3.6,2.3,8.1,2.3,13.6v49.7h-16.1l0.2-17c-0.9,5.1-3.1,9.3-6.7,12.7
				C321.8,283,316.8,284.7,310.2,284.7z M314.7,272.3c2.4,0,4.9-0.4,7.4-1.2c2.5-0.8,4.7-2,6.6-3.6c1.9-1.6,3-3.4,3.5-5.6V248
				c-1.9,0.2-4,0.5-6.6,0.9c-2.5,0.4-4.7,0.9-6.5,1.3c-5.2,1-9,2.4-11.3,4.1c-2.3,1.7-3.5,4.4-3.5,8c0,2,0.5,3.8,1.5,5.3
				c1,1.5,2.2,2.6,3.8,3.4C311.2,271.9,312.9,272.3,314.7,272.3z"/>
			<path class="st0" d="M368.3,283.9V208h14.1l1.8,28.6l-1.2-5.8c0.6-4.2,1.6-8.1,3.3-11.9c1.6-3.7,4.1-6.8,7.4-9.1
				c3.3-2.3,7.7-3.5,13.2-3.5c6.1,0,11,1.7,14.7,5.2c3.7,3.5,6.1,8.7,7,15.8l0.3,1.2v55.3h-16.5v-44.6c0-4.4-0.4-7.9-1.3-10.5
				c-0.8-2.6-2.1-4.5-3.9-5.7c-1.8-1.2-4.1-1.8-7.1-1.8c-3.4,0-6.5,1-9.3,3c-2.8,2-4.8,4.3-6,6.9v52.7H368.3z M456.4,283.9v-44.6
				c0-4.4-0.4-7.9-1.3-10.5c-0.8-2.6-2.2-4.5-4-5.7c-1.8-1.2-4.2-1.8-7-1.8c-3.5,0-6.6,1-9.4,3c-2.8,2-4.7,4.3-5.9,6.9l-0.1,5.4
				l-1.1-4.5c0.4-4.1,1.4-8.2,3-12.1c1.6-3.9,4-7.2,7.2-9.7c3.2-2.6,7.6-3.9,13.1-3.9c6.9,0,12.2,2.2,16.1,6.7s5.8,11.3,5.8,20.5
				v50.3H456.4z"/>
			<path class="st0" d="M493.4,311.9V208h16.1l0.3,10.4v47.4l-0.9,4.6l0.9,13.6v28H493.4z M530,284.7c-5,0-9-0.8-12-2.5
				c-3-1.6-5.1-3.6-6.5-5.9c-1.4-2.3-2.3-4.3-2.6-6l-5.6,0.3l6.5-5.5c0.3,1.2,1,2.3,2.2,3.3c1.1,1.1,2.7,1.9,4.9,2.6
				c2.1,0.7,4.8,1,7.9,1c5.2,0,9.5-2,12.8-6.1c3.4-4,5-10.8,5-20.2c0-8.2-1.6-14.4-4.7-18.8c-3.2-4.4-7.2-6.6-12.1-6.6
				c-3.5,0-6.3,0.5-8.6,1.5c-2.2,1-4,2.1-5.1,3.4c-1.2,1.3-1.9,2.5-2.2,3.5v-5.2c0.1-1.5,0.5-3.3,1.2-5.2c0.7-1.9,1.9-3.8,3.5-5.6
				c1.6-1.8,3.8-3.3,6.5-4.5c2.7-1.2,6.1-1.8,10.1-1.8c6.2,0,11.3,1.7,15.5,5c4.2,3.3,7.3,7.8,9.5,13.5c2.2,5.7,3.2,12.2,3.2,19.5
				c0,6.7-0.8,12.6-2.4,17.6c-1.6,5-3.8,9.2-6.6,12.6s-5.9,5.8-9.4,7.5C537.3,283.9,533.7,284.7,530,284.7z"/>
			<path class="st0" d="M601.6,285.1c-5.8,0-10.9-0.8-15.3-2.5c-4.5-1.7-8-4.3-10.6-7.8c-2.6-3.5-4.1-8-4.3-13.4h15.9
				c0.6,3.9,2.2,6.7,4.7,8.3c2.5,1.6,5.7,2.4,9.3,2.4c2.7,0,5.1-0.3,7.2-0.8c2.1-0.5,3.8-1.4,5-2.7c1.2-1.3,1.8-3,1.8-5.3
				c0-1.5-0.3-2.7-1-3.7c-0.7-1-1.7-1.9-3.1-2.6c-1.4-0.7-3.1-1.4-5.1-2.1c-2-0.6-4.4-1.4-7.2-2.2c-4.9-1.4-9.3-3.1-13.2-5
				c-3.9-1.9-7.1-4.4-9.4-7.4c-2.3-3.1-3.5-7.1-3.5-12.1c0-6.8,2.5-12.1,7.5-15.9s11.5-5.7,19.4-5.7c5.1,0,9.7,0.7,13.8,2.2
				c4.1,1.5,7.5,3.9,10.2,7.2c2.7,3.4,4.3,7.9,5,13.6h-15.8c-0.7-2.7-1.8-4.8-3.1-6.2s-2.9-2.5-4.6-3.1c-1.7-0.6-3.6-0.9-5.6-0.9
				c-2.2,0-4.1,0.3-5.8,1c-1.7,0.7-2.9,1.7-3.8,2.9c-0.9,1.3-1.3,2.7-1.3,4.5c0,2.1,0.6,3.8,1.8,5.2s3,2.6,5.4,3.5
				c2.4,1,5.4,2.1,8.9,3.2c2.9,0.8,5.9,1.7,8.9,2.7c3,1,5.9,2.3,8.5,3.8c2.6,1.5,4.8,3.6,6.4,6.1c1.7,2.6,2.5,5.8,2.5,9.8
				c0,7.2-2.7,12.8-8.1,16.8C617.6,283,610.4,285.1,601.6,285.1z"/>
			<path class="st0" d="M654.7,196.7c-3,0-5.5-1.1-7.6-3.2c-2.1-2.1-3.1-4.8-3.1-8c0-3.2,1-5.9,3.1-8c2.1-2.1,4.6-3.1,7.7-3.1
				c2.9,0,5.4,1,7.5,3.1c2.1,2.1,3.2,4.7,3.2,8c0,3.2-1.1,5.9-3.2,8C660.2,195.6,657.6,196.7,654.7,196.7z M646.3,283.9V208h16.6
				l-0.3,75.9H646.3z"/>
			<path class="st0" d="M676.2,222.2V208h45.3v14.3H676.2z M705.3,285c-6,0-10.7-1.5-14.1-4.6s-5-7.5-5-13.3l-0.1-38.5
				c0-1.5,0.3-2.8,1-4.1c0.7-1.2,1.6-2,2.8-2.3l-3.8-11.3v-2l3.8-22.8h12.5V263c0,2.7,0.6,4.6,1.8,5.6c1.2,1.1,3.4,1.6,6.6,1.6
				c2.1,0,4,0,5.8,0c1.8,0,3.4-0.1,4.8-0.1v14c-2.5,0.5-5.1,0.7-8,0.8C710.6,285,707.9,285,705.3,285z"/>
			<path class="st0" d="M766,284.9c-7.4,0-13.7-1.5-19.1-4.5c-5.3-3-9.4-7.4-12.3-13.3s-4.3-13-4.3-21.4c0-8.3,1.5-15.4,4.6-21.3
				c3.1-5.9,7.2-10.3,12.6-13.4c5.3-3.1,11.4-4.6,18.3-4.6c6.8,0,12.6,1.3,17.5,4c4.8,2.7,8.5,6.7,11.1,11.9
				c2.6,5.3,3.9,11.7,3.9,19.4c0,1.5,0,2.8-0.1,3.7c-0.1,0.9-0.2,2.1-0.2,3.5h-51.2c0.4,7.7,2.3,13.4,5.7,17.1
				c3.4,3.6,7.6,5.5,12.5,5.5c4.5,0,8-1,10.5-3c2.4-2,4-4.2,4.7-6.6h15.9c-0.4,4.9-2,9-4.6,12.5c-2.7,3.5-6.2,6.1-10.5,7.9
				C776.4,284,771.5,284.9,766,284.9z M754.2,237.7h27.7c-0.1-5.6-1.5-9.9-4-12.9c-2.5-3-6.7-4.6-12.6-4.6c-6.1,0-10.6,2-13.6,6.1
				c-3,4.1-4.6,9.6-5,16.7c0.4-2,1.2-3.4,2.4-4.2C750.3,238.1,752,237.7,754.2,237.7z"/>
		</g>
	</g>
	<g>
		<g>
			<g>
				<rect x="147.4" y="238.2" class="st1" width="32.3" height="13.8"/>
			</g>
			<g>
				<rect x="128.7" y="201" class="st0" width="13.8" height="32.3"/>
			</g>
			<g>
				<rect x="128.7" y="238.2" class="st0" width="13.8" height="13.8"/>
			</g>
			<g>
				<rect x="91.5" y="238.2" class="st0" width="32.3" height="13.8"/>
			</g>
			<g>
				<rect x="128.7" y="257" class="st1" width="13.8" height="32.3"/>
			</g>
		</g>
	</g>
	<g>
		<g>
			<rect x="447" y="117.5" class="st2" width="18.4" height="7.9"/>
			<path class="st2" d="M251.8,100.8c-5,0-8.3,2.1-10.3,5.7V97c2.7-1.6,6.2-2.4,10.3-2.4c14.6,0,21.2,9.6,21.2,26.3
				c0,10.3-2.7,17.8-8.2,22v-22C264.9,108.8,261.7,100.8,251.8,100.8z"/>
			<path class="st2" d="M202.5,94.6c-4.1,0-7.5,0.7-10.3,2.2v8.9c2.2-3.4,5.6-4.9,10.1-4.9c8,0,12.3,5,12.3,17.2h-25.2V98.5
				c-5.9,4.5-8.4,12.6-8.4,22.3c0,1.2,0,2.3,0.1,3.4h8.4c0,0,0,0,0,0h33.2c0.1-1.1,0.1-2.9,0.1-4.7
				C222.8,102.8,215.5,94.6,202.5,94.6z"/>
			<path class="st2" d="M376.2,94.6c-4.1,0-7.5,0.7-10.3,2.2v8.9c2.2-3.4,5.6-4.9,10.1-4.9c8,0,12.3,5,12.3,17.2H377v6.2h19.4
				c0.1-1.1,0.1-2.9,0.1-4.7C396.5,102.8,389.3,94.6,376.2,94.6z"/>
			<polygon class="st2" points="335.4,121.4 343.3,121.4 343.3,73.6 330.3,73.6 330.3,79.8 335.4,79.8 			"/>
			<path class="st2" d="M307.5,140.3c-1,0.2-2.1,0.4-3.3,0.4c-9.8,0-12.5-7.9-12.5-19.9V95.3h-13v6.2h5.1v61.8h7.9v-23.1
				c2.2,3.5,6.9,6.7,14.4,6.7c0.5,0,0.9,0,1.4,0V140.3z"/>
			<path class="st2" d="M501.1,140.9c-5.9,0-10.3-2.3-10.3-9.8c0-9.9,7.8-9.7,14.4-9.7h6.2v-5.8h-7.7c-10.7,0-21.1,1.7-21.1,15.6
				c0,12.1,8.1,15.8,16.8,15.8c5.4,0,9.4-1.5,12-3.6v-7.1C509.5,139,506.4,140.9,501.1,140.9z"/>
			<polygon class="st2" points="544.8,124.2 536.9,124.2 536.9,146.2 549.3,146.2 549.3,140 544.8,140 			"/>
			<path class="st2" d="M154,94.6c-5.2,0-9,1.5-11.6,3.7v7.7c1.9-3.2,5-5.1,9.7-5.1c9.9,0,13.1,7.9,13.1,19.9c0,9-1.8,15.8-6.9,18.5
				v7.2c8.8-1.7,15-9.1,15-25.8C173.3,101.5,165,94.6,154,94.6z"/>
			<rect x="436.3" y="96.2" class="st3" width="7.9" height="18.4"/>
			<rect x="436.3" y="117.5" class="st3" width="7.9" height="7.9"/>
			<rect x="415.1" y="117.5" class="st3" width="18.4" height="7.9"/>
			<path class="st3" d="M230.6,120.9c0-10.3,2.7-17.8,8.2-22v22c0,12,3.2,20,13.1,20c5,0,8.2-2.1,10.3-5.7v9.5
				c-2.7,1.6-6.2,2.4-10.3,2.4C237.3,147.1,230.6,137.6,230.6,120.9z"/>
			<path class="st3" d="M205.6,140.7c-9.3,0-15.1-4.3-16-13.7h-8.3c1.9,14.7,10.7,20,23.4,20c7.8,0,12.9-2,15.1-2.9l-0.5-6.6
				C216.7,138.7,211.8,140.7,205.6,140.7z"/>
			<path class="st3" d="M379.3,140.7c-10.2,0-16.2-5.2-16.2-16.5h11V118h-11.1V98.5c-5.9,4.5-8.4,12.6-8.4,22.3
				c0,19.5,9.5,26.2,23.8,26.2c7.8,0,12.9-2,15.1-2.9l-0.5-6.6C390.4,138.7,385.6,140.7,379.3,140.7z"/>
			<polygon class="st3" points="343.3,140 343.3,124.2 335.4,124.2 335.4,146.2 347.8,146.2 347.8,140 			"/>
			<path class="st3" d="M306.1,94.6c-5.2,0-9,1.5-11.6,3.7v7.7c1.9-3.2,5-5.1,9.7-5.1c9.9,0,13.1,7.9,13.1,19.9
				c0,9-1.8,15.8-6.9,18.5v7.2c8.8-1.7,15-9.1,15-25.8C325.4,101.5,317,94.6,306.1,94.6z"/>
			<path class="st3" d="M522,140v-22.7c0-8.7,0-22.7-20.7-22.7c-7.1,0-13.1,1.7-15,2.3l0.5,6.3c2.4-0.7,7.5-2.3,13.9-2.3
				c8.1,0,13.6,2.5,13.4,14.8l0.1,5.8h0v0.4l0,0.1h0v24.4h12.3V140H522z"/>
			<polygon class="st3" points="536.9,121.4 544.8,121.4 544.8,95.3 531.8,95.3 531.8,101.5 536.9,101.5 			"/>
			<path class="st3" d="M155.5,140.3c-1,0.2-2.1,0.4-3.3,0.4c-9.8,0-12.5-7.9-12.5-19.9V95.3h-13v6.2h5.1v61.8h7.9v-23.1
				c2.2,3.5,6.9,6.7,14.4,6.7c0.5,0,0.9,0,1.4,0V140.3z"/>
			<rect x="436.3" y="128.1" class="st2" width="7.9" height="18.4"/>
		</g>
		<rect x="536.5" y="75.8" class="st2" width="7.9" height="7.9"/>
	</g>
</g>
<g class="st4">
	<rect x="536.1" y="-3859.5" class="st5" width="161.3" height="69"/>
	<rect x="442.6" y="-4045.4" class="st6" width="69" height="161.3"/>
	<rect x="442.6" y="-3859.5" class="st6" width="69" height="69"/>
	<rect x="256.7" y="-3859.5" class="st6" width="161.3" height="69"/>
	<rect x="442.6" y="-3766" class="st5" width="69" height="161.3"/>
</g>
<g class="st7">
	<rect x="536.7" y="-3823.3" class="st5" width="165.2" height="70.7"/>
	<rect x="440.8" y="-4013.7" class="st6" width="70.7" height="165.2"/>
	<rect x="440.8" y="-3823.3" class="st6" width="70.7" height="70.7"/>
	<rect x="250.4" y="-3823.3" class="st6" width="165.2" height="70.7"/>
	<rect x="440.8" y="-3727.5" class="st5" width="70.7" height="165.2"/>
</g>
<g class="st7">
	<rect x="-331.4" y="-3823.3" class="st5" width="165.2" height="70.7"/>
	<rect x="-427.3" y="-4013.7" class="st6" width="70.7" height="165.2"/>
	<rect x="-427.3" y="-3823.3" class="st6" width="70.7" height="70.7"/>
	<rect x="-617.6" y="-3823.3" class="st6" width="165.2" height="70.7"/>
	<rect x="-427.3" y="-3727.5" class="st5" width="70.7" height="165.2"/>
</g>
<g>
	<rect x="1423.1" y="-3823.3" class="st2" width="165.2" height="70.7"/>
	<rect x="1327.3" y="-4013.7" class="st3" width="70.7" height="165.2"/>
	<rect x="1327.3" y="-3823.3" class="st3" width="70.7" height="70.7"/>
	<rect x="1136.9" y="-3823.3" class="st3" width="165.2" height="70.7"/>
	<rect x="1327.3" y="-3727.5" class="st2" width="70.7" height="165.2"/>
</g>
</svg>
