<svg width="2722" height="1719" viewBox="0 0 2722 1719" fill="none" xmlns="http://www.w3.org/2000/svg">
<rect width="2722" height="1719" fill="white"/>
<g style="mix-blend-mode:luminosity">
<g clip-path="url(#clip0_126_7)">
<path d="M1066.07 584.381C1066.07 584.381 1066.33 584.552 1066.5 584.638C1066.5 584.638 1066.33 584.638 1066.25 584.467C1066.25 584.467 1066.16 584.467 1066.07 584.381Z" fill="url(#paint0_linear_126_7)"/>
<path d="M1553.93 477.79L1357.29 341.989C1339.73 326.395 1313.25 323.568 1280.01 348.843C1263.39 361.524 1244.37 385.514 1228.6 408.647C1274.61 441.719 1316.08 472.221 1355.24 498.782C1353.09 497.668 1350.78 496.725 1348.47 495.869C1382.22 508.206 1399.62 548.047 1399.36 604.424C1399.36 606.48 1399.27 608.537 1399.19 610.593C1417.01 566.211 1447.34 519.859 1482.55 495.355C1485.72 493.127 1488.89 491.156 1491.98 489.443C1492.15 489.357 1492.41 489.186 1492.58 489.1C1495.58 487.386 1498.41 486.016 1501.23 484.645C1501.58 484.473 1501.92 484.302 1502.18 484.216C1504.92 483.017 1507.66 481.989 1510.31 481.132C1510.66 481.046 1511.09 480.875 1511.43 480.789C1514.08 479.932 1516.57 479.333 1519.14 478.818C1519.48 478.818 1519.91 478.647 1520.25 478.647C1522.74 478.219 1525.14 477.962 1527.54 477.79C1527.88 477.79 1528.22 477.79 1528.56 477.79C1530.96 477.79 1533.28 477.79 1535.5 478.047C1535.76 478.047 1536.02 478.133 1536.28 478.133C1538.59 478.39 1540.82 478.818 1542.87 479.418C1543.04 479.418 1543.22 479.504 1543.39 479.59C1545.61 480.275 1547.76 481.046 1549.73 481.989C1549.73 481.989 1549.81 481.989 1549.9 481.989C1558.47 486.101 1565.49 493.127 1570.63 502.552C1571.92 504.865 1573.03 507.35 1574.06 510.006C1574.06 510.006 1574.06 510.091 1574.06 510.177C1575.09 512.833 1575.94 515.575 1576.8 518.402C1576.8 518.402 1576.8 518.574 1576.8 518.659C1577.57 521.572 1578.26 524.571 1578.77 527.741V527.913C1579.29 531.083 1579.71 534.424 1579.89 537.766C1579.37 509.149 1569.69 487.9 1553.67 477.705L1553.93 477.79Z" fill="url(#paint1_linear_126_7)"/>
<path d="M1553.93 477.79L1357.29 341.989C1339.73 326.395 1313.25 323.568 1280.01 348.843C1263.39 361.524 1244.37 385.514 1228.6 408.647C1274.61 441.719 1316.08 472.221 1355.24 498.782C1353.09 497.668 1350.78 496.725 1348.47 495.869C1382.22 508.206 1399.62 548.047 1399.36 604.424C1399.36 606.48 1399.27 608.537 1399.19 610.593C1417.01 566.211 1447.34 519.859 1482.55 495.355C1485.72 493.127 1488.89 491.156 1491.98 489.443C1492.15 489.357 1492.41 489.186 1492.58 489.1C1495.58 487.386 1498.41 486.016 1501.23 484.645C1501.58 484.473 1501.92 484.302 1502.18 484.216C1504.92 483.017 1507.66 481.989 1510.31 481.132C1510.66 481.046 1511.09 480.875 1511.43 480.789C1514.08 479.932 1516.57 479.333 1519.14 478.818C1519.48 478.818 1519.91 478.647 1520.25 478.647C1522.74 478.219 1525.14 477.962 1527.54 477.79C1527.88 477.79 1528.22 477.79 1528.56 477.79C1530.96 477.79 1533.28 477.79 1535.5 478.047C1535.76 478.047 1536.02 478.133 1536.28 478.133C1538.59 478.39 1540.82 478.818 1542.87 479.418C1543.04 479.418 1543.22 479.504 1543.39 479.59C1545.61 480.275 1547.76 481.046 1549.73 481.989C1549.73 481.989 1549.81 481.989 1549.9 481.989C1558.47 486.101 1565.49 493.127 1570.63 502.552C1571.92 504.865 1573.03 507.35 1574.06 510.006C1574.06 510.006 1574.06 510.091 1574.06 510.177C1575.09 512.833 1575.94 515.575 1576.8 518.402C1576.8 518.402 1576.8 518.574 1576.8 518.659C1577.57 521.572 1578.26 524.571 1578.77 527.741V527.913C1579.29 531.083 1579.71 534.424 1579.89 537.766C1579.37 509.149 1569.69 487.9 1553.67 477.705L1553.93 477.79Z" fill="url(#paint2_linear_126_7)"/>
<path d="M1307.94 493.301C1307.94 493.301 1308.2 493.301 1308.37 493.215C1311.8 492.615 1315.14 492.273 1318.48 492.016C1315.05 492.273 1311.63 492.615 1308.03 493.301H1307.94Z" fill="url(#paint3_linear_126_7)"/>
<path d="M1319.77 491.925C1322.94 491.754 1326.11 491.754 1329.11 491.925C1326.11 491.754 1323.03 491.754 1319.77 491.925Z" fill="url(#paint4_linear_126_7)"/>
<path d="M1025.97 572.385C1025.38 572.385 1024.69 572.299 1024.09 572.299C1024.69 572.299 1025.29 572.385 1025.97 572.385Z" fill="url(#paint5_linear_126_7)"/>
<path d="M697.468 992.903C697.468 992.903 697.468 992.474 697.468 992.303L692.584 988.79C694.212 990.075 695.84 991.446 697.382 992.903H697.468Z" fill="url(#paint6_linear_126_7)"/>
<path d="M429.214 1282.67C429.642 1202.73 495.187 1060.16 579.752 1001.47C624.905 970.108 663.889 968.052 690.364 987.073L495.358 846.387C495.358 846.387 486.619 839.19 483.363 837.305C480.45 835.592 470.854 831.736 470.854 831.736C445.835 823.511 413.706 829.851 377.549 854.955C292.984 913.646 227.439 1056.13 227.011 1136.15C226.754 1176.42 242.776 1211.64 268.908 1229.89L269.251 1230.14C269.251 1230.14 269.422 1230.32 269.593 1230.32L450.291 1355.49C436.753 1336.39 428.957 1310.77 429.128 1282.67H429.214Z" fill="url(#paint7_linear_126_7)"/>
<path d="M429.214 1282.67C429.642 1202.73 495.187 1060.16 579.752 1001.47C624.905 970.108 663.889 968.052 690.364 987.073L495.358 846.387C495.358 846.387 486.619 839.19 483.363 837.305C480.45 835.592 470.854 831.736 470.854 831.736C445.835 823.511 413.706 829.851 377.549 854.955C292.984 913.646 227.439 1056.13 227.011 1136.15C226.754 1176.42 242.776 1211.64 268.908 1229.89L269.251 1230.14C269.251 1230.14 269.422 1230.32 269.593 1230.32L450.291 1355.49C436.753 1336.39 428.957 1310.77 429.128 1282.67H429.214Z" fill="url(#paint8_linear_126_7)"/>
<path d="M1580.47 547.452C1580.82 485.163 1538.83 456.29 1482.46 495.359C1447.16 519.863 1416.83 566.216 1399.09 610.598C1399.09 608.541 1399.26 606.485 1399.26 604.429C1399.78 504.784 1345.28 456.632 1242.38 520.977C1192.69 552.079 1151.91 613.254 1122.78 673.915C1103.07 574.527 1020.39 536.999 914.147 610.683C800.108 689.851 709.888 874.233 697.464 992.898C671.161 967.88 629.092 967.28 579.741 1001.55C495.176 1060.24 429.631 1202.81 429.203 1282.75C428.86 1354.89 480.182 1410.76 549.582 1382.14L1488.97 730.377L1491.45 728.664C1543.55 687.452 1580.22 610.855 1580.47 547.452Z" fill="#E3EEF0"/>
<path d="M1196.81 385.861C1170.5 367.183 1132.81 346.02 1116.44 345.935C1094.08 345.935 1068.2 354.845 1040.01 374.38C1000.86 401.54 965.56 445.579 938.057 493.731C992.12 532.629 1057.66 580.01 1057.66 580.01C1057.58 580.01 1057.41 580.01 1057.32 579.924C1060.32 581.21 1063.23 582.666 1066.06 584.208C1066.15 584.208 1066.23 584.294 1066.32 584.38C1066.4 584.38 1066.58 584.551 1066.58 584.551C1066.58 584.551 1067.35 585.065 1067.77 585.322C1073.34 588.664 1078.57 592.519 1083.45 597.06C1083.97 597.489 1084.48 598.003 1085 598.517C1087.4 600.744 1089.71 603.143 1091.85 605.714C1094.08 608.284 1096.13 611.026 1098.11 613.853C1098.53 614.539 1099.05 615.139 1099.48 615.824C1101.45 618.651 1103.33 621.564 1105.05 624.649V624.735C1106.84 627.819 1108.47 631.161 1110.01 634.502C1110.36 635.359 1110.79 636.13 1111.13 636.987C1112.59 640.414 1114.04 643.841 1115.33 647.44C1115.33 647.44 1115.33 647.44 1115.33 647.525C1116.61 651.209 1117.81 654.979 1118.93 658.835C1119.18 659.777 1119.44 660.72 1119.7 661.748C1120.72 665.689 1121.75 669.716 1122.52 673.914C1151.65 613.254 1192.44 552.079 1242.13 520.977C1243.07 520.377 1243.93 519.863 1244.79 519.349C1292.17 490.39 1329.1 485.506 1354.89 498.701C1306.99 466.142 1255.67 427.758 1196.55 385.861H1196.81Z" fill="url(#paint9_linear_126_7)"/>
<path d="M1196.81 385.861C1170.5 367.183 1132.81 346.02 1116.44 345.935C1094.08 345.935 1068.2 354.845 1040.01 374.38C1000.86 401.54 965.56 445.579 938.057 493.731C992.12 532.629 1057.66 580.01 1057.66 580.01C1057.58 580.01 1057.41 580.01 1057.32 579.924C1060.32 581.21 1063.23 582.666 1066.06 584.208C1066.15 584.208 1066.23 584.294 1066.32 584.38C1066.4 584.38 1066.58 584.551 1066.58 584.551C1066.58 584.551 1067.35 585.065 1067.77 585.322C1073.34 588.664 1078.57 592.519 1083.45 597.06C1083.97 597.489 1084.48 598.003 1085 598.517C1087.4 600.744 1089.71 603.143 1091.85 605.714C1094.08 608.284 1096.13 611.026 1098.11 613.853C1098.53 614.539 1099.05 615.139 1099.48 615.824C1101.45 618.651 1103.33 621.564 1105.05 624.649V624.735C1106.84 627.819 1108.47 631.161 1110.01 634.502C1110.36 635.359 1110.79 636.13 1111.13 636.987C1112.59 640.414 1114.04 643.841 1115.33 647.44C1115.33 647.44 1115.33 647.44 1115.33 647.525C1116.61 651.209 1117.81 654.979 1118.93 658.835C1119.18 659.777 1119.44 660.72 1119.7 661.748C1120.72 665.689 1121.75 669.716 1122.52 673.914C1151.65 613.254 1192.44 552.079 1242.13 520.977C1243.07 520.377 1243.93 519.863 1244.79 519.349C1292.17 490.39 1329.1 485.506 1354.89 498.701C1306.99 466.142 1255.67 427.758 1196.55 385.861H1196.81Z" fill="url(#paint10_linear_126_7)"/>
<path d="M914.155 610.68C940.459 592.431 965.306 581.035 988.182 575.638C988.182 575.638 1016.71 568.098 1057.75 580.007C1057.75 580.007 888.794 457.743 869.773 444.891C831.561 419.102 776.555 419.873 712.981 464.083C598.942 543.251 507.865 727.632 495.355 846.298L697.73 991.696C710.582 873.03 800.545 689.505 914.241 610.68H914.155Z" fill="url(#paint11_linear_126_7)"/>
<g style="mix-blend-mode:soft-light" opacity="0.39">
<path d="M857.856 659.862C771.491 751.196 707.746 894.623 697.464 992.812C671.161 967.793 629.092 967.194 579.741 1001.47C495.176 1060.16 429.631 1202.73 429.203 1282.66C428.86 1354.81 480.182 1410.67 549.582 1382.05L1219.16 917.5L857.856 659.862Z" fill="#E3EEF0"/>
</g>
</g>
<path d="M1162.55 881.476C1162.55 908.035 1155.43 930.761 1142.01 946.916H1112.72C1125.86 933.499 1135.44 912.142 1135.44 882.297C1135.44 832.738 1111.07 804.262 1074.93 804.262C1055.76 804.262 1037.69 811.928 1025.1 822.333V797.69C1038.24 787.56 1054.94 781.536 1076.3 781.536C1130.79 781.536 1162.55 822.607 1162.55 881.476ZM1132.16 957.321C1118.19 971.559 1097.11 979.499 1073.01 979.499C1019.07 979.499 987.312 938.976 987.312 879.833C987.312 849.714 996.621 824.524 1014.42 808.095V879.833C1014.42 929.118 1037.97 957.321 1075.75 957.321H1132.16ZM1302.04 907.761C1302.04 876.821 1290.54 858.75 1271.38 856.285C1269.46 856.012 1267.54 856.012 1265.35 856.012C1252.76 856.012 1236.6 859.845 1225.92 865.047H1208.67V839.309L1232.77 834.655V849.988C1243.72 841.226 1257.41 835.75 1271.38 835.202C1275.76 834.928 1280.14 834.928 1284.25 835.476C1311.08 840.131 1327.51 866.416 1327.51 906.392C1327.51 957.595 1299.03 979.773 1267.82 979.773C1259.88 979.773 1251.39 978.404 1244.27 975.94V955.678C1250.57 957.321 1258.23 958.416 1264.53 958.416C1266.17 958.416 1268.09 958.416 1269.73 958.142C1290.54 955.678 1302.04 938.702 1302.04 907.761ZM1208.67 1044.94V875.452H1233.59V1044.94H1208.67ZM1474.14 970.737C1460.45 977.035 1443.75 980.047 1430.33 980.047C1388.44 980.047 1363.52 950.749 1363.52 907.488C1363.52 889.964 1367.91 875.178 1375.02 863.678H1399.67C1394.46 870.523 1390.08 880.928 1388.71 894.892L1452.79 893.797C1454.43 874.631 1448.95 853.274 1425.95 853.274H1383.24C1393.92 841.226 1409.25 834.655 1427.05 834.655C1467.02 834.655 1482.9 867.785 1475.51 906.666C1458.54 911.869 1414.45 912.69 1388.71 912.142C1390.63 946.916 1410.89 959.511 1434.71 959.511C1447.04 959.511 1459.9 956.499 1470.04 952.94L1474.14 970.737ZM1545.64 834.655V976.487H1520.72V839.309L1545.64 834.655ZM1632.98 877.095V976.487H1608.34V886.131C1608.34 866.964 1603.41 856.012 1583.7 856.012C1574.39 856.012 1564.8 858.202 1556.32 861.762V843.416C1566.99 837.666 1579.32 834.655 1591.91 834.655C1617.1 834.655 1632.98 847.524 1632.98 877.095Z" fill="#65A782"/>
<path d="M1840.92 804.809C1820.11 804.809 1796.29 813.571 1782.6 828.083V801.798C1797.93 788.381 1818.74 781.536 1839.82 781.536C1857.62 781.536 1877.33 785.917 1893.76 794.679L1887.74 815.214C1872.41 808.369 1854.88 804.809 1840.92 804.809ZM1771.92 812.476V880.381C1771.92 908.035 1782.6 930.761 1798.48 946.095H1767.81C1754.39 930.761 1745.63 908.857 1745.63 880.654C1745.63 851.083 1755.49 828.083 1771.92 812.476ZM1839.82 979.773C1815.45 979.773 1794.1 971.559 1778.49 956.499H1839C1854.61 956.499 1873.23 953.761 1887.74 946.642L1893.76 966.63C1877.33 975.94 1857.62 979.773 1839.82 979.773ZM1958.49 976.487H1933.57V772.774L1958.49 767.845V976.487ZM2130.97 908.309C2130.97 925.285 2127.68 939.249 2121.11 949.928H2094.82C2100.57 940.892 2105.5 926.654 2105.5 908.583C2105.5 876 2091.26 854.643 2066.9 854.643C2058.13 854.643 2048 857.107 2040.61 860.94V840.952C2048 837.119 2057.86 834.655 2067.99 834.655C2106.05 834.655 2130.97 862.857 2130.97 908.309ZM2067.72 960.606H2113.44C2103.59 972.928 2087.7 980.047 2067.72 980.047C2029.38 980.047 2004.74 952.94 2004.74 907.488C2004.74 880.654 2013.78 860.393 2029.93 848.619V907.488C2029.93 940.071 2044.72 960.606 2067.72 960.606ZM2223.46 958.69C2232.23 958.69 2240.44 956.499 2248.11 952.118C2248.38 958.69 2250.02 964.44 2251.94 968.547C2240.71 976.487 2227.85 979.773 2215.25 979.773C2190.06 979.773 2174.73 966.63 2174.73 937.333V839.309L2199.37 834.655V929.94C2199.37 947.737 2204.02 958.69 2223.46 958.69ZM2290 979.773C2271.11 979.773 2259.61 967.178 2259.61 945.821V837.94H2284.25V943.904C2284.25 953.761 2289.18 960.333 2298.21 960.333C2300.95 960.333 2303.96 959.785 2306.98 959.237V975.392C2302.87 978.13 2297.12 979.773 2290 979.773ZM2393.61 958.416C2401 958.416 2409.22 956.225 2415.79 952.666V972.38C2408.12 976.761 2399.63 979.225 2390.32 979.499C2387.58 979.773 2384.85 979.773 2382.11 979.499C2354.45 976.487 2333.1 952.118 2333.1 908.857C2333.1 862.035 2359.66 837.666 2388.95 834.928C2391.42 834.655 2393.61 834.655 2396.07 834.655C2407.03 834.928 2417.16 838.214 2426.47 843.416V772.774L2451.38 767.845V861.762H2433.31C2423.73 858.476 2409.76 856.012 2398.81 856.012C2396.07 856.012 2393.88 856.012 2391.42 856.285C2370.06 859.297 2358.56 878.464 2358.56 908.857C2358.56 941.987 2372.25 958.416 2393.61 958.416ZM2430.85 976.487L2426.47 949.928V872.166H2451.38V976.487H2430.85ZM1082.6 1074.81C1061.79 1074.81 1037.97 1083.57 1024.28 1098.08V1071.8C1039.61 1058.38 1060.42 1051.54 1081.5 1051.54C1099.3 1051.54 1119.01 1055.92 1135.44 1064.68L1129.42 1085.21C1114.08 1078.37 1096.56 1074.81 1082.6 1074.81ZM1013.6 1082.48V1150.38C1013.6 1178.04 1024.28 1200.76 1040.16 1216.09H1009.49C996.073 1200.76 987.312 1178.86 987.312 1150.65C987.312 1121.08 997.169 1098.08 1013.6 1082.48ZM1081.5 1249.77C1057.13 1249.77 1035.78 1241.56 1020.17 1226.5H1080.68C1096.29 1226.5 1114.91 1223.76 1129.42 1216.64L1135.44 1236.63C1119.01 1245.94 1099.3 1249.77 1081.5 1249.77ZM1290.82 1178.31C1290.82 1195.29 1287.54 1209.25 1280.97 1219.93H1254.68C1260.43 1210.89 1265.36 1196.65 1265.36 1178.58C1265.36 1146 1251.12 1124.64 1226.75 1124.64C1217.99 1124.64 1207.86 1127.11 1200.47 1130.94V1110.95C1207.86 1107.12 1217.72 1104.65 1227.85 1104.65C1265.91 1104.65 1290.82 1132.86 1290.82 1178.31ZM1227.57 1230.61H1273.3C1263.44 1242.93 1247.56 1250.05 1227.57 1250.05C1189.24 1250.05 1164.6 1222.94 1164.6 1177.49C1164.6 1150.65 1173.63 1130.39 1189.79 1118.62V1177.49C1189.79 1210.07 1204.57 1230.61 1227.57 1230.61ZM1360.87 1104.65V1246.49H1335.95V1109.31L1360.87 1104.65ZM1521.6 1147.09V1246.49H1496.95V1156.13C1496.95 1136.96 1494.76 1126.01 1476.42 1126.01C1467.65 1126.01 1459.99 1127.93 1452.05 1131.76C1451.23 1125.46 1449.86 1120.26 1447.12 1116.15C1458.89 1108.76 1471.49 1104.65 1485.18 1104.65C1508.18 1104.65 1521.6 1117.52 1521.6 1147.09ZM1404.41 1104.65C1428.23 1104.65 1441.1 1117.52 1441.1 1147.09V1246.49H1416.45V1156.13C1416.45 1136.96 1414.26 1126.01 1396.19 1126.01C1387.7 1126.01 1378.94 1128.48 1371.55 1131.76V1113.42C1381.41 1107.94 1392.91 1104.65 1404.41 1104.65ZM1669.44 1177.76C1669.44 1146.82 1657.94 1128.75 1638.77 1126.29C1636.86 1126.01 1634.94 1126.01 1632.75 1126.01C1620.15 1126.01 1604 1129.84 1593.32 1135.05H1576.07V1109.31L1600.17 1104.65V1119.99C1611.12 1111.23 1624.81 1105.75 1638.77 1105.2C1643.15 1104.93 1647.53 1104.93 1651.64 1105.48C1678.47 1110.13 1694.9 1136.42 1694.9 1176.39C1694.9 1227.59 1666.43 1249.77 1635.21 1249.77C1627.27 1249.77 1618.78 1248.4 1611.67 1245.94V1225.68C1617.96 1227.32 1625.63 1228.42 1631.93 1228.42C1633.57 1228.42 1635.49 1228.42 1637.13 1228.14C1657.94 1225.68 1669.44 1208.7 1669.44 1177.76ZM1576.07 1314.94V1145.45H1600.99V1314.94H1576.07ZM1787.88 1228.69C1796.65 1228.69 1804.86 1226.5 1812.53 1222.12C1812.8 1228.69 1814.44 1234.44 1816.36 1238.55C1805.13 1246.49 1792.27 1249.77 1779.67 1249.77C1754.48 1249.77 1739.15 1236.63 1739.15 1207.33V1109.31L1763.79 1104.65V1199.94C1763.79 1217.74 1768.44 1228.69 1787.88 1228.69ZM1854.42 1249.77C1835.53 1249.77 1824.03 1237.18 1824.03 1215.82V1107.94H1848.67V1213.9C1848.67 1223.76 1853.6 1230.33 1862.63 1230.33C1865.37 1230.33 1868.38 1229.78 1871.4 1229.24V1245.39C1867.29 1248.13 1861.54 1249.77 1854.42 1249.77ZM1974.73 1107.12V1127.65H1886.56V1110.13L1909.29 1109.31L1912.85 1070.7L1933.66 1066.32V1108.49L1974.73 1107.12ZM1978.84 1244.3C1970.35 1247.31 1960.49 1249.77 1949.54 1249.77C1925.72 1249.77 1908.74 1238 1908.74 1201.58V1138.06H1933.66V1203.23C1933.66 1216.64 1936.67 1228.14 1956.39 1228.14C1962.68 1228.14 1970.08 1227.32 1976.92 1225.95L1978.84 1244.3ZM2114.54 1240.74C2100.85 1247.03 2084.15 1250.05 2070.73 1250.05C2028.84 1250.05 2003.93 1220.75 2003.93 1177.49C2003.93 1159.96 2008.31 1145.18 2015.43 1133.68H2040.07C2034.87 1140.52 2030.49 1150.93 2029.12 1164.89L2093.19 1163.8C2094.83 1144.63 2089.35 1123.27 2066.35 1123.27H2023.64C2034.32 1111.23 2049.65 1104.65 2067.45 1104.65C2107.43 1104.65 2123.31 1137.79 2115.91 1176.67C2098.94 1181.87 2054.85 1182.69 2029.12 1182.14C2031.03 1216.92 2051.29 1229.51 2075.12 1229.51C2087.44 1229.51 2100.31 1226.5 2110.44 1222.94L2114.54 1240.74Z" fill="#6FAEC0"/>
</g>
<defs>
<linearGradient id="paint0_linear_126_7" x1="1066.07" y1="584.55" x2="1066.58" y2="584.553" gradientUnits="userSpaceOnUse">
<stop stop-color="#30338C"/>
<stop offset="0.84" stop-color="#6D69AA"/>
<stop offset="1" stop-color="#7A75B1"/>
</linearGradient>
<linearGradient id="paint1_linear_126_7" x1="1228.25" y1="469.639" x2="1580.48" y2="471.484" gradientUnits="userSpaceOnUse">
<stop stop-color="#30338C"/>
<stop offset="0.84" stop-color="#6D69AA"/>
<stop offset="1" stop-color="#7A75B1"/>
</linearGradient>
<linearGradient id="paint2_linear_126_7" x1="1228.99" y1="469.705" x2="1579.41" y2="472.009" gradientUnits="userSpaceOnUse">
<stop stop-color="#65A782"/>
<stop offset="0.84" stop-color="#6FAEC0"/>
<stop offset="1" stop-color="#E3EEF0"/>
</linearGradient>
<linearGradient id="paint3_linear_126_7" x1="1307.9" y1="492.679" x2="1318.36" y2="492.733" gradientUnits="userSpaceOnUse">
<stop stop-color="#30338C"/>
<stop offset="0.84" stop-color="#6D69AA"/>
<stop offset="1" stop-color="#7A75B1"/>
</linearGradient>
<linearGradient id="paint4_linear_126_7" x1="1319.74" y1="491.965" x2="1329.08" y2="492.014" gradientUnits="userSpaceOnUse">
<stop stop-color="#30338C"/>
<stop offset="0.84" stop-color="#6D69AA"/>
<stop offset="1" stop-color="#7A75B1"/>
</linearGradient>
<linearGradient id="paint5_linear_126_7" x1="1024.14" y1="572.42" x2="1026.03" y2="572.429" gradientUnits="userSpaceOnUse">
<stop stop-color="#30338C"/>
<stop offset="0.84" stop-color="#6D69AA"/>
<stop offset="1" stop-color="#7A75B1"/>
</linearGradient>
<linearGradient id="paint6_linear_126_7" x1="692.67" y1="990.865" x2="697.554" y2="990.891" gradientUnits="userSpaceOnUse">
<stop stop-color="#30338C"/>
<stop offset="0.84" stop-color="#6D69AA"/>
<stop offset="1" stop-color="#7A75B1"/>
</linearGradient>
<linearGradient id="paint7_linear_126_7" x1="227.252" y1="1090.81" x2="689.742" y2="1093.23" gradientUnits="userSpaceOnUse">
<stop stop-color="#30338C"/>
<stop offset="0.84" stop-color="#6D69AA"/>
<stop offset="1" stop-color="#7A75B1"/>
</linearGradient>
<linearGradient id="paint8_linear_126_7" x1="227.518" y1="1090.76" x2="689.741" y2="1092.89" gradientUnits="userSpaceOnUse">
<stop stop-color="#65A782"/>
<stop offset="0.84" stop-color="#6FAEC0"/>
<stop offset="1" stop-color="#E3EEF0"/>
</linearGradient>
<linearGradient id="paint9_linear_126_7" x1="938.012" y1="509.079" x2="1355.09" y2="511.263" gradientUnits="userSpaceOnUse">
<stop stop-color="#30338C"/>
<stop offset="0.84" stop-color="#6D69AA"/>
<stop offset="1" stop-color="#7A75B1"/>
</linearGradient>
<linearGradient id="paint10_linear_126_7" x1="938.516" y1="509.202" x2="1354.32" y2="511.977" gradientUnits="userSpaceOnUse">
<stop stop-color="#65A782"/>
<stop offset="0.84" stop-color="#6FAEC0"/>
<stop offset="1" stop-color="#E3EEF0"/>
</linearGradient>
<linearGradient id="paint11_linear_126_7" x1="495.975" y1="708.454" x2="1056.99" y2="711.391" gradientUnits="userSpaceOnUse">
<stop stop-color="#65A782"/>
<stop offset="0.84" stop-color="#6FAEC0"/>
<stop offset="1" stop-color="#E3EEF0"/>
</linearGradient>
<clipPath id="clip0_126_7">
<rect width="1353.47" height="1059.68" fill="white" transform="translate(227 330)"/>
</clipPath>
</defs>
</svg>
